# xmcd
#
# Track frame offsets: 
#        150
#        17305
#        31847
#        51537
#        70805
#        85767
#        104150
#        119860
#        136340
#        150185
#        165784
#        182695
#        201672
#        217609
#        233557
#        262870
#
# Disc length: 3517 seconds
#
# Revision: 0
# Processed by: cddbd v1.5.2PL0 Copyright (c) Steve Scherf et al.
# Submitted via: ExactAudioCopy v0.95a5
#
DISCID=cc0dbb10
DTITLE=Various Artist - The Brick 3 SC 756
DYEAR=1900
DGENRE=Karaoke Country
TTITLE0=Johnny Cash and Waylon Jennings - There Ain't No Good Chain Gang
TTITLE1=Hank Williams Jr. - Finders Are Keepers
TTITLE2=Dwight Yoakam - Youre the One
TTITLE3=Waylon Jennings - America
TTITLE4=Sweethearts Of The Rodeo - Chains of Gold
TTITLE5=Mac Davis - Hooked on Music
TTITLE6=Lacy J. Dalton - Losing Kind of Love
TTITLE7=Johnny Duncan - It Couldn't Have Been Any Better
TTITLE8=Tanya Tucker - Don't Believe My Heart Can Stand Another You
TTITLE9=Charelie Rich - Beautiful Woman
TTITLE10=B.J. Thomas - Two Car Garage
TTITLE11=Forester Sisters - Lonely Alone
TTITLE12=Glenn Campbell - Faithless Love
TTITLE13=Tanya Tucker - The Jamestown Ferry
TTITLE14=Gene Watson - Nothing Sure Looked Good on You
TTITLE15=data
EXTD=
EXTT0=
EXTT1=
EXTT2=
EXTT3=
EXTT4=
EXTT5=
EXTT6=
EXTT7=
EXTT8=
EXTT9=
EXTT10=
EXTT11=
EXTT12=
EXTT13=
EXTT14=
EXTT15=
PLAYORDER=
